<svg width="126" height="192" xmlns="http://www.w3.org/2000/svg" version="1.1" xml:space="preserve">

 <g>
  <title>Layer 1</title>
  <path id="svg_12" d="m82.21,118.66c-5.93,0 -15.53,0.43 -28.5,1.27c-5.12,0.3 -8.55,0.46 -10.2,0.46c-8.46,0 -8.46,-3.63 -8.46,-4.99c0,-2.47 2.32,-5.11 6.89,-7.83c8.97,1.34 16.22,2.02 21.56,2.02c14.18,0 26.47,-3.86 36.52,-11.48c10.17,-7.7 15.33,-17.17 15.33,-28.12c0,-16.31 -9.91,-28.92 -29.44,-37.51c0.1,-2.44 0.63,-4.16 1.54,-5.01c0.58,-0.55 1.39,-0.78 2.42,-0.72c0.61,0.04 1.87,0.36 4.35,1.6c3.64,1.78 6.87,2.68 9.61,2.68c8.37,0 12.8,-4.71 12.8,-13.61c0,-14.4 -11.11,-17.42 -20.42,-17.42c-16.77,0 -25.28,8.15 -25.28,24.24c0,1.25 0.12,2.85 0.36,4.79c-7.02,-0.86 -12.82,-1.29 -17.25,-1.29c-14.28,0 -26.42,4.05 -36.1,12.04c-9.76,8.05 -14.71,18.18 -14.71,30.11c0,14.81 7.26,25.67 21.6,32.32c-16.48,8.55 -24.83,18.58 -24.83,29.83c0,8.69 6.27,15.21 18.66,19.42c-11.47,3.4 -17.28,9.18 -17.28,17.21c0,15.39 17.91,23.2 53.23,23.2c47.13,0 71.03,-13.44 71.03,-39.95c-0.01,-22.07 -14.62,-33.26 -43.43,-33.26zm-23.68,-78.13c7.78,0 11.67,10.78 11.67,32.35c0,15.94 -3.74,23.92 -11.21,23.92c-8.16,0 -12.25,-8.97 -12.25,-26.92c0,-19.57 3.93,-29.35 11.79,-29.35zm-2.08,138.53c-19.02,0 -28.54,-3.77 -28.54,-11.32c0,-7.63 9.82,-11.44 29.46,-11.44c21.49,0 32.23,3.35 32.23,10.05c0.01,8.47 -11.05,12.71 -33.15,12.71z"/>
 </g>
</svg>