<?xml version="1.0" standalone="no"?>
<!DOCTYPE svg PUBLIC "-//W3C//DTD SVG 20010904//EN"
 "http://www.w3.org/TR/2001/REC-SVG-20010904/DTD/svg10.dtd">
<svg version="1.0" xmlns="http://www.w3.org/2000/svg"
 width="768.000000pt" height="768.000000pt" viewBox="0 0 768.000000 768.000000"
 preserveAspectRatio="xMidYMid meet">
<metadata>
Created by potrace 1.14, written by Peter Selinger 2001-2017
</metadata>
<g transform="translate(0.000000,768.000000) scale(0.100000,-0.100000)"
fill="#000000" stroke="none">
<path d="M4988 7675 c-2 -2 -23 -6 -48 -9 -390 -54 -638 -251 -735 -582 -18
-63 -19 -68 -29 -129 -17 -111 -24 -264 -12 -283 4 -7 2 -12 -4 -12 -6 0 -9
-3 -7 -7 3 -5 8 -36 12 -71 l7 -63 -54 6 c-29 3 -69 7 -88 10 -44 6 -111 12
-215 22 -107 9 -566 9 -635 -1 -75 -10 -110 -15 -140 -21 -14 -3 -41 -7 -60
-10 -19 -3 -43 -8 -52 -11 -9 -3 -26 -7 -37 -9 -50 -11 -60 -14 -102 -25 -24
-7 -51 -15 -59 -18 -8 -3 -19 -6 -25 -8 -23 -5 -105 -35 -141 -51 -21 -9 -41
-17 -44 -18 -3 0 -50 -23 -105 -51 -132 -67 -232 -131 -369 -237 -48 -37 -219
-209 -261 -262 -22 -27 -43 -52 -46 -55 -17 -14 -118 -187 -155 -265 -39 -83
-85 -218 -99 -290 -23 -116 -33 -219 -33 -340 0 -147 12 -257 38 -360 6 -22
12 -48 15 -58 31 -132 140 -338 241 -458 39 -47 158 -162 195 -191 17 -12 43
-32 57 -44 39 -30 222 -140 264 -157 20 -8 39 -21 43 -28 5 -7 4 -10 -2 -6 -6
4 -16 0 -23 -8 -7 -8 -16 -15 -20 -15 -13 0 -172 -93 -258 -151 -339 -228
-551 -471 -636 -733 -35 -105 -40 -144 -40 -281 0 -99 4 -132 23 -190 52 -157
149 -278 316 -390 66 -44 196 -117 215 -120 3 0 27 -11 54 -23 27 -12 54 -22
62 -22 7 0 16 -4 19 -10 3 -5 16 -10 28 -10 32 0 9 -14 -58 -35 -75 -23 -247
-103 -300 -139 -66 -44 -158 -127 -192 -173 -97 -128 -134 -286 -109 -461 28
-200 158 -377 371 -505 105 -62 356 -161 477 -187 24 -5 72 -15 108 -23 100
-23 253 -48 380 -62 14 -2 50 -6 80 -9 282 -33 979 -39 1295 -11 28 2 79 7
115 9 89 7 180 17 210 22 14 3 48 7 75 10 28 3 61 7 75 10 14 3 36 7 50 9 48
6 114 18 195 35 28 6 59 12 70 14 17 4 232 61 260 69 107 33 206 69 290 107
64 29 194 93 217 108 15 9 55 35 90 56 35 22 65 42 68 45 3 3 28 24 55 45 28
22 84 74 126 117 270 277 387 646 346 1094 -5 60 -12 101 -42 245 -2 8 -9 29
-15 45 -6 17 -13 37 -15 46 -7 34 -80 178 -125 244 -75 111 -200 231 -325 310
-78 49 -258 132 -268 123 -2 -2 -10 2 -18 8 -26 21 -243 77 -384 99 -82 13
-102 15 -165 20 -36 3 -81 7 -100 10 -42 7 -460 7 -620 1 -166 -7 -344 -15
-425 -21 -520 -35 -805 -45 -895 -32 -151 21 -221 85 -215 194 4 65 35 122
102 184 57 53 170 132 181 126 4 -3 36 -8 72 -12 36 -4 72 -8 80 -10 8 -2 44
-6 80 -10 36 -4 67 -9 70 -10 3 -2 46 -7 95 -10 50 -4 92 -8 95 -10 9 -5 262
-18 360 -18 105 0 330 12 340 18 3 2 33 7 65 11 89 11 100 12 100 14 0 2 18 6
65 14 93 16 352 94 358 108 2 5 10 8 19 8 8 0 44 13 80 30 35 16 69 30 74 30
5 0 9 4 9 9 0 5 13 12 29 16 16 3 35 13 42 21 6 8 16 14 21 14 12 0 156 88
176 107 7 7 16 13 20 13 4 0 21 11 37 25 17 13 35 28 40 32 105 80 262 234
325 319 50 66 115 171 140 224 37 77 79 188 85 221 3 18 8 36 11 41 6 9 12 37
19 83 2 17 7 48 11 70 8 46 8 237 0 310 -4 42 -22 140 -40 220 -10 46 -51 155
-84 225 -34 71 -107 199 -121 210 -3 3 -19 23 -36 45 -60 81 -176 201 -255
263 -25 20 -50 41 -55 46 -12 13 -48 38 -131 94 -110 73 -162 103 -284 164
-36 18 -67 35 -70 38 -3 3 -25 12 -49 20 l-44 14 6 63 c15 160 104 209 257
140 30 -13 80 -35 110 -49 140 -63 225 -84 343 -86 161 -1 274 37 369 125 45
43 103 142 113 193 2 11 6 24 10 29 16 27 23 254 10 341 -35 231 -180 406
-403 487 -60 22 -91 30 -197 50 -32 6 -382 13 -387 8z m-1197 -1646 c57 -29
129 -104 167 -176 35 -66 85 -193 77 -193 -3 0 -1 -8 4 -17 5 -10 11 -31 14
-48 3 -16 8 -41 12 -55 3 -14 7 -38 10 -55 3 -16 7 -41 10 -55 12 -68 22 -160
31 -280 10 -123 10 -572 1 -660 -5 -41 -9 -88 -11 -105 -2 -16 -6 -43 -9 -60
-4 -16 -9 -44 -12 -61 -9 -59 -47 -169 -82 -238 -91 -181 -259 -255 -443 -196
-38 12 -70 26 -70 31 0 5 -6 9 -14 9 -20 0 -99 91 -136 155 -50 87 -96 234
-116 365 -2 19 -7 46 -10 60 -12 64 -18 207 -18 460 0 288 5 371 28 525 13 81
18 110 21 116 2 3 7 19 9 35 11 57 15 70 41 144 68 187 167 295 295 321 57 11
158 0 201 -22z m254 -4613 c28 -2 75 -7 105 -10 30 -3 75 -8 100 -11 25 -3 61
-8 80 -11 19 -4 44 -8 55 -9 90 -13 231 -55 311 -94 178 -85 237 -193 193
-355 -33 -123 -166 -231 -371 -300 -42 -14 -87 -27 -100 -30 -201 -40 -196
-40 -303 -50 -33 -4 -77 -9 -97 -12 -142 -19 -673 -19 -833 0 -16 2 -59 7 -95
11 -36 4 -72 9 -80 10 -8 2 -53 11 -100 21 -47 9 -89 20 -94 25 -6 5 -19 9
-29 9 -42 0 -202 87 -253 138 -54 53 -94 133 -98 202 -3 43 15 125 37 167 60
115 262 224 481 259 21 3 47 7 56 9 10 2 40 7 67 11 26 3 57 8 67 10 11 2 70
6 130 10 61 4 112 8 114 9 5 4 597 -4 657 -9z"/>
</g>
</svg>
