<svg width="487" height="192" xmlns="http://www.w3.org/2000/svg" version="1.1" xml:space="preserve">
 <g>
  <title>Layer 1</title>
  <g id="svg_1">
   <g id="svg_2">
    <path d="m384.52,170.74c1.32,0 2.44,0.19 3.36,0.58c0.92,0.38 1.68,0.89 2.26,1.52c0.58,0.63 1,1.35 1.27,2.15s0.4,1.64 0.4,2.51c0,0.85 -0.13,1.68 -0.4,2.49c-0.27,0.82 -0.69,1.54 -1.27,2.17c-0.58,0.63 -1.33,1.14 -2.26,1.52c-0.93,0.38 -2.05,0.58 -3.36,0.58l-4.87,0l0,7.55l-4.63,0l0,-21.07l9.5,0zm-1.26,9.92c0.53,0 1.04,-0.04 1.53,-0.12c0.49,-0.08 0.92,-0.23 1.3,-0.46c0.37,-0.23 0.67,-0.55 0.9,-0.96c0.23,-0.41 0.34,-0.95 0.34,-1.62c0,-0.67 -0.11,-1.21 -0.34,-1.62c-0.23,-0.41 -0.53,-0.73 -0.9,-0.96c-0.37,-0.23 -0.81,-0.38 -1.3,-0.46c-0.49,-0.08 -1,-0.12 -1.53,-0.12l-3.6,0l0,6.32l3.6,0z" id="svg_3"/>
    <path d="m410.11,170.74l7.88,21.07l-4.81,0l-1.59,-4.69l-7.88,0l-1.65,4.69l-4.66,0l7.97,-21.07l4.74,0zm0.27,12.93l-2.66,-7.73l-0.06,0l-2.74,7.73l5.46,0z" id="svg_4"/>
    <path d="m438.26,170.74c0.94,0 1.8,0.15 2.55,0.46c0.76,0.3 1.41,0.72 1.95,1.25c0.54,0.53 0.95,1.15 1.24,1.85s0.43,1.45 0.43,2.26c0,1.24 -0.26,2.31 -0.78,3.22c-0.52,0.91 -1.37,1.59 -2.55,2.07l0,0.06c0.57,0.16 1.04,0.4 1.42,0.72c0.37,0.32 0.68,0.71 0.91,1.15c0.24,0.44 0.41,0.93 0.52,1.46c0.11,0.53 0.18,1.06 0.22,1.59c0.02,0.34 0.04,0.73 0.06,1.18c0.02,0.45 0.05,0.92 0.1,1.39s0.13,0.92 0.24,1.34c0.11,0.42 0.27,0.78 0.49,1.08l-4.63,0c-0.26,-0.67 -0.41,-1.47 -0.47,-2.39c-0.06,-0.92 -0.15,-1.81 -0.27,-2.66c-0.16,-1.1 -0.49,-1.91 -1,-2.42c-0.51,-0.51 -1.35,-0.77 -2.51,-0.77l-4.63,0l0,8.23l-4.63,0l0,-21.07l11.34,0zm-1.65,9.53c1.06,0 1.86,-0.24 2.39,-0.71c0.53,-0.47 0.8,-1.24 0.8,-2.3c0,-1.02 -0.27,-1.77 -0.8,-2.23c-0.53,-0.46 -1.33,-0.69 -2.39,-0.69l-5.07,0l0,5.93l5.07,0z" id="svg_5"/>
    <path d="m459.92,170.74l0,21.07l-4.63,0l0,-21.07l4.63,0z" id="svg_6"/>
    <path d="m474.62,186.62c0.26,0.49 0.6,0.89 1.02,1.19c0.42,0.31 0.92,0.53 1.49,0.68c0.57,0.15 1.16,0.22 1.77,0.22c0.41,0 0.86,-0.03 1.33,-0.1c0.47,-0.07 0.91,-0.2 1.33,-0.4c0.41,-0.2 0.76,-0.47 1.03,-0.81c0.28,-0.35 0.41,-0.78 0.41,-1.31c0,-0.57 -0.18,-1.03 -0.55,-1.39c-0.36,-0.35 -0.84,-0.65 -1.43,-0.89c-0.59,-0.24 -1.26,-0.44 -2.01,-0.62c-0.75,-0.18 -1.51,-0.37 -2.27,-0.59c-0.79,-0.2 -1.55,-0.44 -2.3,-0.72c-0.75,-0.29 -1.42,-0.65 -2.01,-1.11c-0.59,-0.45 -1.07,-1.02 -1.43,-1.7c-0.36,-0.68 -0.55,-1.5 -0.55,-2.46c0,-1.08 0.23,-2.02 0.69,-2.82s1.07,-1.46 1.82,-1.99c0.75,-0.53 1.59,-0.93 2.54,-1.18c0.94,-0.25 1.89,-0.38 2.83,-0.38c1.1,0 2.16,0.12 3.17,0.37c1.01,0.25 1.91,0.64 2.7,1.2c0.79,0.55 1.41,1.25 1.87,2.11s0.69,1.89 0.69,3.11l-4.49,0c-0.04,-0.63 -0.17,-1.15 -0.4,-1.56c-0.23,-0.41 -0.53,-0.74 -0.9,-0.97c-0.37,-0.24 -0.8,-0.4 -1.28,-0.5c-0.48,-0.1 -1.01,-0.15 -1.58,-0.15c-0.37,0 -0.75,0.04 -1.12,0.12c-0.37,0.08 -0.71,0.22 -1.02,0.41c-0.3,0.2 -0.56,0.44 -0.75,0.74c-0.2,0.29 -0.3,0.67 -0.3,1.12c0,0.41 0.08,0.75 0.24,1c0.16,0.26 0.47,0.49 0.93,0.71c0.46,0.22 1.1,0.43 1.92,0.65c0.82,0.22 1.88,0.49 3.2,0.83c0.39,0.08 0.94,0.22 1.64,0.43c0.7,0.21 1.39,0.54 2.08,0.99c0.69,0.45 1.28,1.06 1.79,1.81c0.5,0.76 0.75,1.73 0.75,2.91c0,0.96 -0.19,1.86 -0.56,2.69c-0.37,0.83 -0.93,1.54 -1.67,2.14c-0.74,0.6 -1.65,1.07 -2.74,1.4c-1.09,0.33 -2.36,0.5 -3.79,0.5c-1.16,0 -2.29,-0.14 -3.38,-0.43c-1.09,-0.29 -2.06,-0.73 -2.89,-1.34c-0.84,-0.61 -1.5,-1.39 -1.99,-2.33c-0.49,-0.94 -0.73,-2.07 -0.71,-3.36l4.48,0c0.02,0.69 0.14,1.29 0.4,1.78z" id="svg_7"/>
   </g>
   <g id="svg_8">
    <polygon points="44.97999572753906,77.93998718261719 92.46000671386719,77.93998718261719 92.46000671386719,59.38999938964844 44.97999572753906,59.38999938964844 44.97999572753906,18.55999755859375 101.47001647949219,18.55999755859375 101.47001647949219,0.0099945068359375 0,0.0099945068359375 0,150.03001403808594 111.06001281738281,150.03001403808594 111.06001281738281,131.49000549316406 44.97999572753906,131.49000549316406 " id="svg_9"/>
    <path d="m303.75,27.85c-39.31,0 -59.24,20.98 -59.24,62.36c0,41.38 19.93,62.36 59.24,62.36c39.23,0 59.13,-20.98 59.13,-62.36c0,-41.38 -19.89,-62.36 -59.13,-62.36zm12.62,62.36c0,40.8 -6.93,49.36 -12.73,49.36c-5.76,0 -12.62,-8.56 -12.62,-49.36c0,-40.8 6.86,-49.36 12.62,-49.36c5.81,0 12.73,8.57 12.73,49.36z" id="svg_10"/>
    <path d="m456.26,27.85c-14.32,0 -26.75,6.41 -37,19.06l0,-19.39l-1.55,0.22c-13.51,1.91 -27.63,2.88 -41.98,2.88l-1.36,0l0,119.41l44.89,0l0,-65.14c0,-9.13 1.77,-17.14 5.27,-23.8c3.35,-6.38 7.26,-9.61 11.62,-9.61c1.46,0 5.92,0 5.92,11.69l0,86.86l44.89,0l0,-91.02c0,-20.67 -10.33,-31.16 -30.7,-31.16z" id="svg_11"/>
    <path d="m202.23,118.66c-5.93,0 -15.53,0.43 -28.5,1.27c-5.12,0.3 -8.55,0.46 -10.2,0.46c-8.46,0 -8.46,-3.63 -8.46,-4.99c0,-2.47 2.32,-5.11 6.89,-7.83c8.97,1.34 16.22,2.02 21.56,2.02c14.18,0 26.47,-3.86 36.52,-11.48c10.17,-7.7 15.33,-17.17 15.33,-28.12c0,-16.31 -9.91,-28.92 -29.44,-37.51c0.1,-2.44 0.63,-4.16 1.54,-5.01c0.58,-0.55 1.39,-0.78 2.42,-0.72c0.61,0.04 1.87,0.36 4.35,1.6c3.64,1.78 6.87,2.68 9.61,2.68c8.37,0 12.8,-4.71 12.8,-13.61c0,-14.4 -11.11,-17.42 -20.42,-17.42c-16.77,0 -25.28,8.15 -25.28,24.24c0,1.25 0.12,2.85 0.36,4.79c-7.02,-0.86 -12.82,-1.29 -17.25,-1.29c-14.28,0 -26.42,4.05 -36.1,12.04c-9.76,8.05 -14.71,18.18 -14.71,30.11c0,14.81 7.26,25.67 21.6,32.32c-16.48,8.55 -24.83,18.58 -24.83,29.83c0,8.69 6.27,15.21 18.66,19.42c-11.47,3.4 -17.28,9.18 -17.28,17.21c0,15.39 17.91,23.2 53.23,23.2c47.13,0 71.03,-13.44 71.03,-39.95c-0.01,-22.07 -14.62,-33.26 -43.43,-33.26zm-23.68,-78.13c7.78,0 11.67,10.78 11.67,32.35c0,15.94 -3.74,23.92 -11.21,23.92c-8.16,0 -12.25,-8.97 -12.25,-26.92c0,-19.57 3.93,-29.35 11.79,-29.35zm-2.08,138.53c-19.02,0 -28.54,-3.77 -28.54,-11.32c0,-7.63 9.82,-11.44 29.46,-11.44c21.49,0 32.23,3.35 32.23,10.05c0.01,8.47 -11.05,12.71 -33.15,12.71z" id="svg_12"/>
   </g>
  </g>
 </g>

</svg>